<svg xmlns="http://www.w3.org/2000/svg" viewBox="0 0 512 512">
  <path fill="#e6643c" d="M337 269l-49 107 49 129 63-25 33 25h38V269z"/>
  <g fill="#bcaaa3">
    <path d="M308 136h148v30H308zM308 191h148v30H308z"/>
  </g>
  <path d="M411 191h45v30h-45zM411 136h45v30h-45z" opacity=".1"/>
  <path fill="#bcaaa3" d="M441 113h30v148h-30z"/>
  <path fill="#d9d9d9" d="M314 244h174v35H314z"/>
  <path fill="#ff6f43" d="M42 99v96h295V36z"/>
  <path fill="#d9d9d9" d="M337 340h97v165h-97z"/>
  <path d="M337 244h30v261h-30z" opacity=".1"/>
  <path fill="#ff6f43" d="M42 195v310h40l106-32 109 32h40V195z"/>
  <g fill="#81d3fa">
    <path d="M82 244h83v65H82zM214 244h83v65h-83z"/>
  </g>
  <path d="M367 273h104v31H367zM337 237v-42H42v42zM82 244h83v17H82zM214 244h83v17h-83zM42 151l295-72V36L42 99z" opacity=".1"/>
  <g fill="#d9d9d9">
    <path d="M24 124V88L355 7v37zM24 178h330v35H24zM82 340v165h38l30-17 32 17h15l32-20 30 20h38V340z"/>
  </g>
  <g fill="#bcaaa3">
    <path d="M182 505V377h-62v128zM197 377v128h62V377z"/>
  </g>
  <path d="M82 316h83c4 0 8-3 8-7v-65c0-4-4-8-8-8H82c-4 0-7 4-7 8v65c0 4 3 7 7 7zm8-65h68v50H90v-50zM214 316h83c4 0 7-3 7-7v-65c0-4-3-8-7-8h-83c-4 0-7 4-7 8v65c0 4 3 7 7 7zm8-65h67v50h-67v-50z"/>
  <path d="M24 220h11v285c0 4 3 7 7 7h429c4 0 8-3 8-7V286h9c4 0 7-3 7-7v-35c0-4-3-8-7-8h-9V113c0-4-4-7-8-7h-30c-4 0-7 3-7 7v16h-90V54l12-3c4-1 6-4 6-7V7c0-4-5-8-9-7L23 81c-4 1-6 4-6 7v36c0 5 5 9 9 7l9-2v41H24c-4 0-7 4-7 8v35c0 4 3 7 7 7zm26 0h279v277h-25V340c0-4-3-8-7-8H82c-4 0-7 4-7 8v157H50V220zm294 16v-8h90v8h-90zm90-23h-72v-15h72v15zm0-30h-72v-5l-1-4h73v9zM197 384h55v113h-55V384zm-15 113h-55V384h55v113zm77-128H120c-5 0-8 4-8 8v120H90V347h199v150h-22V377c0-4-3-8-8-8zm85 128V347h82v150h-82zm120 0h-23V340c0-4-3-8-8-8h-89v-46h120v211zm16-226H344v-20h136v20zm-16-150v115h-15V121h15zm-30 23v15h-90v-15h90zM32 94l315-77v21L40 113l-8 2V94zm0 91h54a8 8 0 000-15H50v-44l279-68v112H116a8 8 0 000 15h231v20H32v-20z"/>
</svg>
