<svg xmlns="http://www.w3.org/2000/svg" viewBox="0 0 512 512">
  <path fill="#ff9800" d="M356 376V47c0-6-5-11-11-11-16 0-29 13-29 29h-26c-7 0-14-7-14-15s-6-14-14-14h-12c-8 0-14 6-14 14s-7 15-14 15h-26c0-16-13-29-29-29-6 0-11 5-11 11v329"/>
  <path fill="#ffb74d" d="M493 158c-16 0-29 13-29 29h-25c-8 0-15-7-15-15s-6-14-14-14h-11c-8 0-15 6-15 14s-6 15-14 15h-26c0-16-13-29-29-29-6 0-11 5-11 11v112l64 56 36 139h101V169c0-6-5-11-12-11z"/>
  <path d="M304 476V169c0-6 5-11 11-11 16 0 29 13 29 29v289h-40z" opacity=".1"/>
  <g fill="#029be5">
    <path d="M413 221h-17c-4 0-7 3-7 6v18c0 3 3 6 7 6h17c4 0 6-3 6-6v-18c0-3-2-6-6-6zM354 221h-17c-4 0-6 3-6 6v18c0 3 2 6 6 6h17c4 0 7-3 7-6v-18c0-3-3-6-7-6zM454 221h18c3 0 6 3 6 6v18c0 3-3 6-6 6h-18c-3 0-6-3-6-6v-18c0-3 3-6 6-6z"/>
  </g>
  <path d="M196 221V65c0-16-13-29-29-29-6 0-11 5-11 11v174h40z" opacity=".1"/>
  <path fill="#ffb74d" d="M197 158c-16 0-29 13-29 29h-26c-8 0-14-7-14-15s-7-14-15-14h-11c-8 0-14 6-14 14s-7 15-15 15H48c0-16-13-29-29-29-7 0-11 5-11 11v307h100l27-79 5-92 68-24V169c0-6-5-11-11-11z"/>
  <g fill="#029be5">
    <path d="M58 221H40c-3 0-6 3-6 6v18c0 3 3 6 6 6h18c3 0 6-3 6-6v-18c0-3-3-6-6-6zM99 221h17c4 0 7 3 7 6v18c0 3-3 6-7 6H99c-4 0-6-3-6-6v-18c0-3 2-6 6-6zM158 221h17c4 0 6 3 6 6v18c0 3-2 6-6 6h-17c-4 0-7-3-7-6v-18c0-3 3-6 7-6z"/>
  </g>
  <path fill="#ffb74d" d="M256 86c-14 0-25 11-25 25v45h50v-45c0-14-11-25-25-25z"/>
  <path fill="#029be5" d="M108 281v195h48l103-40 97 40h48V281z"/>
  <path fill="#ff9800" d="M336 356c-12 0-21-9-21-21s-10-23-23-23h-72c-13 0-23 11-23 23s-9 21-21 21-20 9-20 20v100h200V376c0-11-9-20-20-20z"/>
  <path d="M48 187c0-16-13-29-29-29-7 0-11 5-11 11v307h40V187z" opacity=".1"/>
  <path d="M413 213h-17c-8 0-14 7-14 14v18c0 7 6 14 14 14h17c8 0 14-7 14-14v-18c0-7-6-14-14-14zm-1 31h-15v-16h15v16zM337 213c-8 0-14 7-14 14v18c0 7 6 14 14 14h17c8 0 14-7 14-14v-18c0-7-6-14-14-14h-17zm16 31h-15v-16h15v16zM454 213c-7 0-14 7-14 14v18c0 7 7 14 14 14h18c7 0 14-7 14-14v-18c0-7-7-14-14-14h-18zm17 31h-16v-16h16v16zM130 245v-18c0-7-6-14-14-14H99c-8 0-14 7-14 14v18c0 7 6 14 14 14h17c8 0 14-7 14-14zm-15-1h-15v-16h15v16zM158 259h17c8 0 14-7 14-14v-18c0-7-6-14-14-14h-17c-8 0-14 7-14 14v18c0 7 6 14 14 14zm1-31h15v16h-15v-16zM58 213H40c-7 0-14 7-14 14v18c0 7 7 14 14 14h18c7 0 14-7 14-14v-18c0-7-7-14-14-14zm-1 31H41v-16h16v16zM256 78c-18 0-33 15-33 33v45c0 5 4 8 8 8h50c4 0 8-3 8-8v-45c0-18-15-33-33-33zm18 71h-36v-38a18 18 0 0136 0v38z"/>
  <path d="M493 150c-17 0-32 13-35 29h-19c-4 0-7-3-7-7 0-12-10-22-22-22h-11c-12 0-22 10-22 22 0 4-3 7-7 7h-6V47c0-10-9-19-19-19-18 0-32 13-36 29h-19c-3 0-6-3-6-7 0-12-10-22-22-22h-12c-12 0-22 10-22 22 0 4-3 7-6 7h-19c-4-16-18-29-36-29-10 0-19 9-19 19v132h-6c-4 0-7-3-7-7 0-12-10-22-22-22h-11c-12 0-22 10-22 22 0 4-3 7-7 7H54c-3-16-18-29-35-29-11 0-19 9-19 19v307c0 4 3 8 8 8h497c4 0 7-4 7-8v-50a8 8 0 00-15 0v43h-85V281c0-4-3-8-8-8h-92V169c0-2 1-4 3-4a21 21 0 0122 22c0 4 3 7 7 7h26c12 0 22-10 22-22 0-4 3-7 7-7h11c4 0 7 3 7 7 0 12 10 22 22 22h25c5 0 8-3 8-7 0-12 10-22 21-22 2 0 4 2 4 4v227a8 8 0 0015 0V169c0-10-8-19-19-19zM100 281v188H15V169c0-2 2-4 4-4 11 0 21 10 21 22 0 4 3 7 8 7h25c12 0 22-10 22-22 0-4 3-7 7-7h11c4 0 7 3 7 7 0 12 10 22 22 22h26c4 0 7-3 7-7 0-12 10-22 22-22 2 0 3 2 3 4v104h-92c-4 0-8 4-8 8zm63 188v-93c0-7 6-13 13-13 16 0 29-12 29-28 0-8 6-15 15-15h72c9 0 15 7 15 15 0 16 13 28 29 28 7 0 13 6 13 13v93H163zm234-181v181h-33v-93c0-15-13-28-28-28-8 0-14-5-14-13 0-17-13-30-30-30h-72c-17 0-30 13-30 30 0 8-6 13-14 13-15 0-28 13-28 28v93h-33V288h282zM297 169v104h-82V169c0-10-8-19-18-19a37 37 0 00-34 22V47c0-2 2-4 4-4 12 0 21 10 21 22 0 4 4 7 8 7h26c12 0 21-9 21-22 0-3 4-7 7-7h12c3 0 7 4 7 7 0 13 9 22 21 22h26c4 0 8-3 8-7 0-12 9-22 21-22 2 0 4 2 4 4v125a37 37 0 00-34-22c-10 0-18 9-18 19z"/>
</svg>
