<svg xmlns="http://www.w3.org/2000/svg" viewBox="0 0 512 512">
  <path fill="#ffb74d" d="M256 109L39 172v170l226 10 208-10V170z"/>
  <g fill="#e6643c">
    <path d="M76 149h31v194H76zM302 149h31v194h-31zM411 149h31v194h-31z"/>
  </g>
  <path d="M39 281h434v30H39z" opacity=".1"/>
  <path fill="#ff6f43" d="M489 250H23c-9 0-16 7-16 16 0 8 7 15 16 15h466c9 0 15-7 15-15h1c0-9-7-16-16-16z"/>
  <path fill="#6d4c41" d="M145 230h90v128h-90z"/>
  <path fill="#43a047" d="M39 358h31v142H39z"/>
  <g fill="#66bb6a">
    <path d="M145 399h90v31h-90zM145 456h90v31h-90z"/>
  </g>
  <g fill="#43a047">
    <path d="M129 358h31v142h-31zM219 358h31v142h-31zM442 358h31v142h-31z"/>
  </g>
  <path d="M442 358h31v46h-31zM39 358h31v46H39z" opacity=".1"/>
  <path fill="#66bb6a" d="M489 342H23c-9 0-16 7-16 16 0 8 7 15 16 15h466c9 0 15-7 15-15h1c0-9-7-16-16-16z"/>
  <path fill="#ff9800" d="M289 17c-22-6-44-6-66 0C37 68 17 185 17 185c0 12 10 21 22 21s22-9 22-21a22 22 0 1043 0c0 12 10 21 22 21s22-9 22-21c0 12 9 21 21 21s22-9 22-21c0 12 10 21 22 21s21-9 21-21a22 22 0 1044 0c0 12 9 21 21 21s22-9 22-21c0 12 10 21 22 21s21-9 21-21a22 22 0 1044 0c0 12 9 21 21 21s22-9 22-21c0 12 10 21 22 21s22-9 22-21c0 0-20-117-206-168z"/>
  <path d="M223 17C37 68 17 185 17 185c0 12 10 21 22 21s22-9 22-21c0 0 20-113 204-173-14 0-28 1-42 5z" opacity=".1"/>
  <path d="M489 335h-9v-46h9a23 23 0 000-46h-9v-30a29 29 0 0022-30c0-1-6-31-35-68-16-21-38-40-63-57-32-20-70-37-113-49-23-6-47-6-70 0-35 10-66 23-94 38a8 8 0 008 13c26-15 57-27 90-36 20-6 42-6 62 0 93 26 143 69 168 100 21 26 30 51 32 61a14 14 0 01-28 0 7 7 0 10-15 0c0 7-7 14-15 14-7 0-14-7-14-14a7 7 0 10-15 0 14 14 0 01-28 0 7 7 0 10-15 0c0 8-6 14-14 14s-14-7-14-14a7 7 0 10-15 0c0 7-7 14-15 14-7 0-14-6-14-14a7 7 0 10-15 0 14 14 0 01-28 0 7 7 0 10-15 0 14 14 0 01-29 0 7 7 0 10-15 0 14 14 0 01-28 0 7 7 0 10-15 0c0 8-6 14-14 14s-14-7-14-14a7 7 0 10-15 0c0 8-7 14-14 14-8 0-15-7-15-14a7 7 0 10-15 0 14 14 0 01-28 0c1-3 4-16 14-35 20-35 49-59 70-74a7 7 0 10-8-12c-79 54-90 117-91 119v2c0 13 9 25 22 28v30h-9a23 23 0 000 46h9v46h-9a23 23 0 000 46h9v119c0 4 3 7 7 7h31c4 0 8-3 8-7V381h44v119c0 4 3 7 7 7h31c4 0 8-3 8-7v-5h44v5c0 4 3 7 7 7h31c4 0 8-3 8-7V381h176v119c0 4 4 7 8 7h31c4 0 7-3 7-7V381h9a23 23 0 000-46zm-24 0h-16v-46h16v46zm-125 0v-46h63v46h-63zm-98 0v-46h53v46h-53zm-127 0v-46h22v46h-22zm-31-46h16v46H84v-46zm68-52h75v98h-75v-98zm158 52h15v46h-15v-46zm108 0h16v46h-16v-46zm79-23c0 4-4 8-8 8H242v-16h247c4 0 8 3 8 8zm-187-54a29 29 0 0011-8l4 4v35h-15v-31zm108 0l7 2h9v-1 30h-16v-31zm31 31v-37l2-2c4 4 9 7 14 9v30h-16zm-85-39a29 29 0 0039 4v35h-63v-29a29 29 0 0024-10zm-238 10c9 0 16-4 22-10a29 29 0 0043 0 29 29 0 0043 0 29 29 0 0044 0c4 5 10 8 17 10v29h-53v-14c0-4-3-7-7-7h-90c-5 0-8 3-8 7v14h-22v-31l11 2zm-42 0c5 0 11-2 15-5l1-1v35H84v-29zm-37-1c5-2 10-5 14-9 2 3 5 5 8 6v33H47v-30zm-32 53c0-5 4-8 8-8h114v16H23c-4 0-8-4-8-8zm32 23h22v46H47v-46zm16 203H47V381h16v111zm90 0h-16V381h16v111zm59-111v10h-44v-10h44zm0 41h-44v-16h44v16zm-44 15h44v12h-44v-12zm0 43v-16h44v16h-44zm75 12h-16V381h16v111zm222 0h-16V381h16v111zm24-126H23a8 8 0 010-16h466a8 8 0 010 16z"/>
</svg>
