<svg xmlns="http://www.w3.org/2000/svg" viewBox="0 0 512 512">
  <g fill="#ff9800">
    <path d="M466 439c-17-39-45-85-74-132l-136-12-136 12c-29 47-57 93-74 132l132 65 31-41-31-24a78 78 0 11156 0l-34 28 34 37 132-65zM370 271c-43-73-83-149-83-208h-62a478 478 0 01-83 208h-1l115 17 114-17z"/>
  </g>
  <path fill="#ff6f43" d="M120 307h272l-22-36H142l-22 36z"/>
  <path fill="#d4bfb8" d="M466 439l-30 38-34-38-32 29-36-29v65h150c0-18-7-40-18-65z"/>
  <g fill="#029be5">
    <path d="M334 439l36 65 32-65zM402 439l32 65 32-65z"/>
  </g>
  <path fill="#d4bfb8" d="M46 439l30 38 34-38 32 29 36-29v65H28c0-18 7-40 18-65z"/>
  <g fill="#029be5">
    <path d="M178 439l-36 65-32-65zM110 439l-32 65-32-65z"/>
  </g>
  <path fill="#6d4c41" d="M256 361c-43 0-78 35-78 78v65h156v-65c0-43-35-78-78-78z"/>
  <path d="M273 367l-17-2c-43 0-78 35-78 78v65h34v-65c0-37 26-68 61-76zM86 439c18-39 46-85 74-132l22-36c44-73 82-149 82-208h-39c0 59-40 135-84 208l-21 36c-29 47-57 93-74 132-11 25-18 47-18 65h40c0-18 7-40 18-65z" opacity=".1"/>
  <path d="M491 501a104 104 0 00-1-13c-3-15-8-32-17-52v-1c-17-38-44-81-71-126-48-80-103-170-107-237l38-30a8 8 0 00-9-12l-34 26h-5l19-39a8 8 0 00-13-7l-23 46h-4V8a8 8 0 10-16 0v48h-4l-23-46a8 8 0 10-13 7l19 39h-5l-34-26a8 8 0 10-9 12l38 30c-2 31-15 71-40 120a8 8 0 0014 7c26-53 40-94 42-128h15v193h-93l21-37a8 8 0 00-14-7 10590 10590 0 01-53 89c-26 45-53 88-70 126v1c-9 20-15 37-17 52l-2 16c0 5 4 8 8 8h456c4 0 8-3 8-8l-1-3zm-101-55l-21 42-23-42h44zm12 10l20 41h-40l20-41zm12-10h40l-20 41-20-41zm40-15H341c-4-41-36-73-77-77v-39h124l1 2c25 41 49 80 65 114zm-75-131H264v-21h102l13 21zM264 71h15c3 56 38 124 78 193h-93V71zM146 279h102v21H133l13-21zm-23 38l1-2h124v39c-41 4-73 36-77 77H58c16-34 40-73 65-114zm43 129l-23 42-21-42h44zm-68 0l-20 41-20-41h40zm12 10l20 41H90l20-41zm61 12v29h-16l16-29zM36 496l2-11 8-28 20 40H36v-1zm150-57a70 70 0 01140 0v58H186v-58zm155 29l16 29h-16v-29zm105 29l20-40a187 187 0 0110 39v1h-30z"/>
</svg>
